<svg fill="none" height="1395" viewBox="0 0 3080 1395" width="3080" xmlns="http://www.w3.org/2000/svg" xmlns:xlink="http://www.w3.org/1999/xlink"><filter id="a" color-interpolation-filters="sRGB" filterUnits="userSpaceOnUse" height="1318" width="2978" x="50" y="56.9991"><feFlood flood-opacity="0" result="BackgroundImageFix"/><feColorMatrix in="SourceAlpha" type="matrix" values="0 0 0 0 0 0 0 0 0 0 0 0 0 0 0 0 0 0 127 0"/><feOffset dy="3"/><feGaussianBlur stdDeviation="3"/><feColorMatrix type="matrix" values="0 0 0 0 0 0 0 0 0 0 0 0 0 0 0 0 0 0 0.5 0"/><feBlend in2="BackgroundImageFix" mode="normal" result="effect1_dropShadow"/><feColorMatrix in="SourceAlpha" type="matrix" values="0 0 0 0 0 0 0 0 0 0 0 0 0 0 0 0 0 0 127 0"/><feOffset dy="20"/><feGaussianBlur stdDeviation="12.5"/><feColorMatrix type="matrix" values="0 0 0 0 0 0 0 0 0 0 0 0 0 0 0 0 0 0 0.15 0"/><feBlend in2="effect1_dropShadow" mode="normal" result="effect2_dropShadow"/><feBlend in="SourceGraphic" in2="effect2_dropShadow" mode="normal" result="shape"/></filter><filter id="b" color-interpolation-filters="sRGB" filterUnits="userSpaceOnUse" height="632.724" width="2943.61" x="69.5503" y="761.365"><feFlood flood-opacity="0" result="BackgroundImageFix"/><feColorMatrix in="SourceAlpha" type="matrix" values="0 0 0 0 0 0 0 0 0 0 0 0 0 0 0 0 0 0 127 0"/><feOffset dy="4"/><feGaussianBlur stdDeviation="4"/><feColorMatrix type="matrix" values="0 0 0 0 0 0 0 0 0 0 0 0 0 0 0 0 0 0 0.3 0"/><feBlend in2="BackgroundImageFix" mode="normal" result="effect1_dropShadow"/><feColorMatrix in="SourceAlpha" type="matrix" values="0 0 0 0 0 0 0 0 0 0 0 0 0 0 0 0 0 0 127 0"/><feOffset/><feGaussianBlur stdDeviation="21.5"/><feColorMatrix type="matrix" values="0 0 0 0 0 0 0 0 0 0 0 0 0 0 0 0 0 0 0.22 0"/><feBlend in2="effect1_dropShadow" mode="normal" result="effect2_dropShadow"/><feColorMatrix in="SourceAlpha" type="matrix" values="0 0 0 0 0 0 0 0 0 0 0 0 0 0 0 0 0 0 127 0"/><feOffset dy="23"/><feGaussianBlur stdDeviation="17"/><feColorMatrix type="matrix" values="0 0 0 0 0 0 0 0 0 0 0 0 0 0 0 0 0 0 0.16 0"/><feBlend in2="effect2_dropShadow" mode="normal" result="effect3_dropShadow"/><feBlend in="SourceGraphic" in2="effect3_dropShadow" mode="normal" result="shape"/></filter><linearGradient id="c" gradientUnits="userSpaceOnUse" x1="1539" x2="1539" y1="77" y2="1315"><stop offset="0" stop-color="#db00ff" stop-opacity=".85"/><stop offset="1" stop-color="#fff" stop-opacity="0"/></linearGradient><linearGradient id="d" gradientUnits="userSpaceOnUse" x1="1541" x2="1541" y1="1736" y2="657.5"><stop offset="0" stop-color="#21ff0e" stop-opacity=".56"/><stop offset="1" stop-color="#fff" stop-opacity="0"/></linearGradient><g filter="url(#a)" stroke-linecap="round" stroke-linejoin="round" stroke-width="30"><path d="m301 875-211 440h340.5m-129.5-440 292-75m-292 75 262 178m30-253 172-376.5m-172 376.5-30 253m202-629.5 349.5 54m-349.5-54 349.5 578m0-524 250-54 268-346.5m-518 400.5v524m0-524 370.5 141.5m147.5-542 418.5 274m-418.5-274-147.5 542m566-268 238 422m-238-422-566 268m566-268-207.5 449m445.5-27 271.5-102.5 171.5 355.5m-443-253-186.5 171.5m186.5-171.5 178 313m265-60 256 289h-521m265-289-12 12-253 48m-2036.5 229 132.5-262m-132.5 262h491m-358.5-262 150.5-14.05m401-37.45-193 313.5m193-313.5 479 313.5m-479-313.5-401 37.45m401-37.45 370.5-382.5m0 0 358.5 181m-358.5-181 65.32 419m293.18-238 259 144.5m-259-144.5-293.18 238m552.18-93.5-15.08 108.5m379.58 33v229m0 0h-416m0 0h-457.5m457.5 0 36.42-262m-493.92 262-43.18-277m43.18 277 493.92-262m-493.92 262h-672m0 0-208-276.05" stroke="#7381ff"/><path d="m301 875-211 440h340.5m-129.5-440 292-75m-292 75 262 178m30-253 172-376.5m-172 376.5-30 253m202-629.5 349.5 54m-349.5-54 349.5 578m0-524 250-54 268-346.5m-518 400.5v524m0-524 370.5 141.5m147.5-542 418.5 274m-418.5-274-147.5 542m566-268 238 422m-238-422-566 268m566-268-207.5 449m445.5-27 271.5-102.5 171.5 355.5m-443-253-186.5 171.5m186.5-171.5 178 313m265-60 256 289h-521m265-289-12 12-253 48m-2036.5 229 132.5-262m-132.5 262h491m-358.5-262 150.5-14.05m401-37.45-193 313.5m193-313.5 479 313.5m-479-313.5-401 37.45m401-37.45 370.5-382.5m0 0 358.5 181m-358.5-181 65.32 419m293.18-238 259 144.5m-259-144.5-293.18 238m552.18-93.5-15.08 108.5m379.58 33v229m0 0h-416m0 0h-457.5m457.5 0 36.42-262m-493.92 262-43.18-277m43.18 277 493.92-262m-493.92 262h-672m0 0-208-276.05" stroke="url(#c)"/></g><g filter="url(#b)"><path d="m112.55 1330v-518.545h373.718v113.431h-232.941v89.124h213.698v113.43h-213.698v89.13h231.928v113.43zm860.115-518.545v518.545h-117.483l-187.365-272.44h-3.038v272.44h-140.777v-518.545h119.508l184.327 271.425h4.051v-271.425zm176.295 0 106.34 365.615h4.05l106.35-365.615h159l-171.16 518.545h-192.43l-171.157-518.545zm700.47 0h140.78v332.195c0 39.5-9.45 73.68-28.36 102.54-18.73 28.7-44.9 50.89-78.49 66.59-33.59 15.53-72.58 23.3-116.97 23.3-44.73 0-83.9-7.77-117.49-23.3-33.59-15.7-59.75-37.89-78.49-66.59-18.57-28.86-27.85-63.04-27.85-102.54v-332.195h140.78v320.035c0 16.04 3.54 30.39 10.63 43.05 7.09 12.49 16.88 22.28 29.37 29.37 12.66 7.09 27.01 10.63 43.05 10.63 16.2 0 30.55-3.54 43.04-10.63s22.28-16.88 29.37-29.37c7.09-12.66 10.63-27.01 10.63-43.05zm455.13 162.045c-1.35-16.88-7.68-30.046-18.99-39.499-11.14-9.452-28.1-14.179-50.89-14.179-14.52 0-26.42 1.773-35.7 5.318-9.12 3.375-15.87 8.017-20.26 13.925s-6.66 12.66-6.83 20.256c-.34 6.246.76 11.9 3.29 16.964 2.7 4.895 6.92 9.368 12.66 13.42 5.74 3.882 13.08 7.427 22.03 10.635 8.94 3.21 19.58 6.08 31.9 8.61l42.54 9.11c28.69 6.08 53.25 14.1 73.68 24.06 20.42 9.96 37.13 21.69 50.13 35.19 13 13.34 22.53 28.36 28.61 45.07 6.25 16.71 9.45 34.94 9.62 54.69-.17 34.1-8.69 62.96-25.57 86.59s-41.02 41.61-72.41 53.93c-31.23 12.33-68.79 18.49-112.68 18.49-45.07 0-84.4-6.67-117.99-20.01-33.42-13.33-59.41-33.84-77.98-61.52-18.4-27.85-27.68-63.47-27.85-106.85h133.69c.84 15.87 4.81 29.2 11.9 40 7.08 10.81 17.04 18.99 29.87 24.56 13 5.57 28.44 8.36 46.34 8.36 15.02 0 27.6-1.86 37.72-5.57 10.13-3.71 17.81-8.86 23.04-15.45 5.24-6.58 7.94-14.09 8.11-22.53-.17-7.93-2.79-14.85-7.85-20.76-4.9-6.08-13-11.48-24.31-16.21-11.31-4.89-26.58-9.45-45.83-13.67l-51.65-11.14c-45.91-9.96-82.12-26.59-108.62-49.88-26.33-23.46-39.42-55.45-39.25-95.961-.17-32.916 8.61-61.696 26.34-86.34 17.89-24.813 42.62-44.141 74.18-57.982 31.74-13.841 68.11-20.762 109.13-20.762 41.86 0 78.07 7.005 108.62 21.015s54.1 33.76 70.64 59.248c16.71 25.32 25.15 54.944 25.32 88.872zm665.6 97.23c0 57.73-11.23 106.42-33.68 146.09-22.45 39.5-52.75 69.46-90.89 89.89-38.15 20.25-80.69 30.38-127.61 30.38-47.27 0-89.97-10.21-128.12-30.64-37.98-20.59-68.2-50.64-90.65-90.14-22.28-39.66-33.42-88.19-33.42-145.58 0-57.73 11.14-106.345 33.42-145.844 22.45-39.667 52.67-69.629 90.65-89.884 38.15-20.425 80.85-30.637 128.12-30.637 46.92 0 89.46 10.212 127.61 30.637 38.14 20.255 68.44 50.217 90.89 89.884 22.45 39.499 33.68 88.114 33.68 145.844zm-144.83 0c0-31.06-4.13-57.23-12.41-78.493-8.1-21.438-20.17-37.642-36.2-48.614-15.87-11.141-35.45-16.711-58.74-16.711-23.3 0-42.96 5.57-59 16.711-15.87 10.972-27.94 27.176-36.21 48.614-8.1 21.263-12.15 47.433-12.15 78.493s4.05 57.3 12.15 78.74c8.27 21.27 20.34 37.47 36.21 48.61 16.04 10.98 35.7 16.46 59 16.46 23.29 0 42.87-5.48 58.74-16.46 16.03-11.14 28.1-27.34 36.2-48.61 8.28-21.44 12.41-47.68 12.41-78.74z" fill="#82c3ff"/><path d="m112.55 1330v-518.545h373.718v113.431h-232.941v89.124h213.698v113.43h-213.698v89.13h231.928v113.43zm860.115-518.545v518.545h-117.483l-187.365-272.44h-3.038v272.44h-140.777v-518.545h119.508l184.327 271.425h4.051v-271.425zm176.295 0 106.34 365.615h4.05l106.35-365.615h159l-171.16 518.545h-192.43l-171.157-518.545zm700.47 0h140.78v332.195c0 39.5-9.45 73.68-28.36 102.54-18.73 28.7-44.9 50.89-78.49 66.59-33.59 15.53-72.58 23.3-116.97 23.3-44.73 0-83.9-7.77-117.49-23.3-33.59-15.7-59.75-37.89-78.49-66.59-18.57-28.86-27.85-63.04-27.85-102.54v-332.195h140.78v320.035c0 16.04 3.54 30.39 10.63 43.05 7.09 12.49 16.88 22.28 29.37 29.37 12.66 7.09 27.01 10.63 43.05 10.63 16.2 0 30.55-3.54 43.04-10.63s22.28-16.88 29.37-29.37c7.09-12.66 10.63-27.01 10.63-43.05zm455.13 162.045c-1.35-16.88-7.68-30.046-18.99-39.499-11.14-9.452-28.1-14.179-50.89-14.179-14.52 0-26.42 1.773-35.7 5.318-9.12 3.375-15.87 8.017-20.26 13.925s-6.66 12.66-6.83 20.256c-.34 6.246.76 11.9 3.29 16.964 2.7 4.895 6.92 9.368 12.66 13.42 5.74 3.882 13.08 7.427 22.03 10.635 8.94 3.21 19.58 6.08 31.9 8.61l42.54 9.11c28.69 6.08 53.25 14.1 73.68 24.06 20.42 9.96 37.13 21.69 50.13 35.19 13 13.34 22.53 28.36 28.61 45.07 6.25 16.71 9.45 34.94 9.62 54.69-.17 34.1-8.69 62.96-25.57 86.59s-41.02 41.61-72.41 53.93c-31.23 12.33-68.79 18.49-112.68 18.49-45.07 0-84.4-6.67-117.99-20.01-33.42-13.33-59.41-33.84-77.98-61.52-18.4-27.85-27.68-63.47-27.85-106.85h133.69c.84 15.87 4.81 29.2 11.9 40 7.08 10.81 17.04 18.99 29.87 24.56 13 5.57 28.44 8.36 46.34 8.36 15.02 0 27.6-1.86 37.72-5.57 10.13-3.71 17.81-8.86 23.04-15.45 5.24-6.58 7.94-14.09 8.11-22.53-.17-7.93-2.79-14.85-7.85-20.76-4.9-6.08-13-11.48-24.31-16.21-11.31-4.89-26.58-9.45-45.83-13.67l-51.65-11.14c-45.91-9.96-82.12-26.59-108.62-49.88-26.33-23.46-39.42-55.45-39.25-95.961-.17-32.916 8.61-61.696 26.34-86.34 17.89-24.813 42.62-44.141 74.18-57.982 31.74-13.841 68.11-20.762 109.13-20.762 41.86 0 78.07 7.005 108.62 21.015s54.1 33.76 70.64 59.248c16.71 25.32 25.15 54.944 25.32 88.872zm665.6 97.23c0 57.73-11.23 106.42-33.68 146.09-22.45 39.5-52.75 69.46-90.89 89.89-38.15 20.25-80.69 30.38-127.61 30.38-47.27 0-89.97-10.21-128.12-30.64-37.98-20.59-68.2-50.64-90.65-90.14-22.28-39.66-33.42-88.19-33.42-145.58 0-57.73 11.14-106.345 33.42-145.844 22.45-39.667 52.67-69.629 90.65-89.884 38.15-20.425 80.85-30.637 128.12-30.637 46.92 0 89.46 10.212 127.61 30.637 38.14 20.255 68.44 50.217 90.89 89.884 22.45 39.499 33.68 88.114 33.68 145.844zm-144.83 0c0-31.06-4.13-57.23-12.41-78.493-8.1-21.438-20.17-37.642-36.2-48.614-15.87-11.141-35.45-16.711-58.74-16.711-23.3 0-42.96 5.57-59 16.711-15.87 10.972-27.94 27.176-36.21 48.614-8.1 21.263-12.15 47.433-12.15 78.493s4.05 57.3 12.15 78.74c8.27 21.27 20.34 37.47 36.21 48.61 16.04 10.98 35.7 16.46 59 16.46 23.29 0 42.87-5.48 58.74-16.46 16.03-11.14 28.1-27.34 36.2-48.61 8.28-21.44 12.41-47.68 12.41-78.74z" fill="url(#d)"/></g></svg>